<?xml version="1.0" encoding="iso-8859-1"?>
<!-- Generator: Adobe Illustrator 16.0.0, SVG Export Plug-In . SVG Version: 6.00 Build 0)  -->
<!DOCTYPE svg PUBLIC "-//W3C//DTD SVG 1.1//EN" "http://www.w3.org/Graphics/SVG/1.1/DTD/svg11.dtd">
<svg version="1.1" id="Capa_1" xmlns="http://www.w3.org/2000/svg" xmlns:xlink="http://www.w3.org/1999/xlink" x="0px" y="0px"
	 width="42.893px" height="42.893px" viewBox="0 0 42.893 42.893" style="enable-background:new 0 0 42.893 42.893;"
	 xml:space="preserve">
<g>
	<path d="M41.777,15.04c-0.316-0.212-0.679-0.335-1.047-0.386V3.894c0-1.381-1.119-2.5-2.5-2.5H4.657c-1.381,0-2.5,1.119-2.5,2.5
		v10.762c-0.366,0.051-0.728,0.173-1.045,0.385C0.418,15.505,0,16.284,0,17.12v21.879c0,1.381,1.118,2.5,2.5,2.5h37.893
		c1.381,0,2.5-1.119,2.5-2.5V17.12C42.89,16.284,42.472,15.505,41.777,15.04z M35.73,6.394v9.959L21.444,22.3L7.157,16.353V6.394
		H35.73z M11.112,10.279c0-0.829,0.672-1.5,1.5-1.5h17.666c0.828,0,1.5,0.671,1.5,1.5s-0.672,1.5-1.5,1.5H12.612
		C11.784,11.779,11.112,11.108,11.112,10.279z M11.112,15.446c0-0.829,0.672-1.5,1.5-1.5h17.666c0.828,0,1.5,0.671,1.5,1.5
		c0,0.828-0.672,1.5-1.5,1.5H12.612C11.784,16.946,11.112,16.274,11.112,15.446z"/>
</g>
<g>
</g>
<g>
</g>
<g>
</g>
<g>
</g>
<g>
</g>
<g>
</g>
<g>
</g>
<g>
</g>
<g>
</g>
<g>
</g>
<g>
</g>
<g>
</g>
<g>
</g>
<g>
</g>
<g>
</g>
</svg>
